<svg class="svg-icon" style="width: 1em;height: 1em;vertical-align: middle;fill: currentColor;overflow: hidden;" viewBox="0 0 1024 1024" version="1.1" xmlns="http://www.w3.org/2000/svg"><path d="M542.293333 481.706667a42.666667 42.666667 0 0 0-60.586666 0l-106.666667 106.666666a193.706667 193.706667 0 1 0 273.92 0z" fill="#309FFB" /><path d="M840.96 225.706667l-85.333333-85.333334a42.666667 42.666667 0 0 0-60.586667 0l-85.333333 85.333334a163.413333 163.413333 0 1 0 231.253333 0z" fill="#69B9FB" /><path d="M389.12 426.666667a132.693333 132.693333 0 0 0-38.826667-94.293334l-64-64a42.666667 42.666667 0 0 0-60.586666 0l-64 64A133.546667 133.546667 0 1 0 389.12 426.666667z" fill="#88C7FB" /></svg>